# Blender 4.0.2
# www.blender.org
mtllib Laptop_Monitor.mtl
o Cube
v -0.558994 1.310399 -0.235582
v -0.558994 2.090565 -0.235582
v -0.529294 1.383068 -0.197139
v -0.529294 2.063611 -0.197139
v 0.686421 1.310399 -0.235582
v 0.686421 2.090565 -0.235582
v 0.656721 1.383068 -0.197139
v 0.656721 2.063611 -0.197139
v -0.558994 2.090565 -0.197139
v -0.558994 1.310399 -0.197139
v 0.686421 1.310399 -0.197139
v 0.686421 2.090565 -0.197139
v -0.556225 2.088831 -0.197139
v -0.556225 1.312133 -0.197139
v 0.683652 1.312133 -0.197139
v 0.683652 2.088831 -0.197139
v -0.529294 2.063611 -0.213495
v -0.529294 1.383068 -0.213495
v 0.656721 1.383068 -0.213495
v 0.656721 2.063611 -0.213495
v -0.101986 1.310399 -0.197139
v -0.101986 2.090565 -0.197139
v -0.101986 1.310399 -0.235582
v -0.101986 2.090565 -0.235582
v -0.101249 1.312133 -0.197139
v -0.101249 2.088831 -0.197139
v -0.094083 1.383068 -0.197139
v -0.094083 2.063611 -0.197139
v -0.094083 1.383068 -0.213495
v -0.094083 2.063611 -0.213495
v 0.196330 2.090565 -0.197139
v 0.196330 1.310399 -0.235582
v 0.195741 2.088831 -0.197139
v 0.190005 2.063611 -0.197139
v 0.190005 2.063611 -0.213495
v 0.196330 1.310399 -0.197139
v 0.196330 2.090565 -0.235582
v 0.195741 1.312133 -0.197139
v 0.190005 1.383068 -0.197139
v 0.190005 1.383068 -0.213495
v 0.173962 2.107495 -0.235582
v -0.079617 2.107495 -0.235582
v -0.079617 2.107495 -0.197139
v 0.173962 2.107495 -0.197139
vn -1.0000 -0.0000 -0.0000
vn -0.0000 -1.0000 -0.0000
vn 1.0000 -0.0000 -0.0000
vn -0.0000 -0.0000 -1.0000
vn -0.0000 1.0000 -0.0000
vn -0.0000 -0.0000 1.0000
vn 0.6035 0.7974 -0.0000
vn -0.6035 0.7974 -0.0000
vt 0.517943 0.476077
vt 0.259638 0.476077
vt 0.259638 0.000272
vt 0.517943 0.000272
vt 0.149613 0.754503
vt 0.246412 0.754503
vt 0.246412 0.956938
vt 0.149613 0.956938
vt 0.258373 0.476077
vt 0.000069 0.476077
vt 0.000069 0.000272
vt 0.258373 0.000272
vt 0.905214 0.739234
vt 0.905214 0.480930
vt 1.000000 0.480930
vt 1.000000 0.739234
vt 0.476077 0.635195
vt 0.476077 0.736842
vt 0.000272 0.736842
vt 0.000272 0.635195
vt 0.716507 0.476077
vt 0.621722 0.476077
vt 0.621722 0.000272
vt 0.716507 0.000272
vt 0.479112 0.485093
vt 0.479112 0.742249
vt 0.478538 0.742823
vt 0.478538 0.484519
vt 0.635073 0.742249
vt 0.736268 0.742249
vt 0.736842 0.742823
vt 0.635195 0.742823
vt 0.573476 0.485093
vt 0.573323 0.484519
vt 0.736268 0.485093
vt 0.736842 0.484519
vt 0.484698 0.493443
vt 0.484698 0.718763
vt 0.633883 0.718763
vt 0.730682 0.718763
vt 0.574962 0.493443
vt 0.730682 0.493443
vt 0.628082 0.971292
vt 0.628082 0.745972
vt 0.724880 0.745972
vt 0.724880 0.971292
vt 0.712919 0.698564
vt 0.487599 0.698564
vt 0.487599 0.496130
vt 0.712919 0.496130
vt 0.248364 0.754503
vt 0.473684 0.754503
vt 0.473684 0.956938
vt 0.248364 0.956938
vt 0.976076 0.156147
vt 0.976076 0.246411
vt 0.773642 0.246411
vt 0.773642 0.156147
vt 0.976076 0.097226
vt 0.773642 0.097226
vt 0.478896 0.971292
vt 0.478896 0.745972
vt 0.569160 0.745972
vt 0.569160 0.971292
vt 0.633883 0.493443
vt 0.635073 0.485093
vt 0.574962 0.718763
vt 0.573476 0.742249
vt 0.635195 0.484519
vt 0.573323 0.742823
vt 0.577963 0.478913
vt 0.630556 0.478913
vt 0.476077 0.478538
vt 0.476077 0.573323
vt 0.000272 0.573323
vt 0.000272 0.478538
vt 0.843342 0.739234
vt 0.843342 0.480930
vt 0.000427 0.754503
vt 0.090692 0.754503
vt 0.090692 0.956938
vt 0.000427 0.956938
vt 0.741696 0.739234
vt 0.741696 0.480930
vt 0.620813 0.476077
vt 0.519167 0.476077
vt 0.519167 0.000272
vt 0.620813 0.000272
vt 0.976076 0.000427
vt 0.773642 0.000427
vt 0.770335 0.476077
vt 0.717741 0.476077
vt 0.717741 0.000272
vt 0.770335 0.000272
vt 0.476077 0.751196
vt 0.000272 0.751196
vt 0.000272 0.745591
vt 0.476076 0.745591
vt 0.476077 0.744019
vt 0.000272 0.744019
vt 0.000272 0.738414
vt 0.476076 0.738414
vt 0.847982 0.475325
vt 0.900575 0.475325
s 0
usemtl Material.001
f 1/1/1 10/4/1 9/3/1 2/2/1
f 34/5/2 35/8/2 20/7/2 8/6/2
f 11/9/3 5/12/3 6/11/3 12/10/3
f 23/13/4 1/16/4 2/15/4 24/14/4
f 36/17/2 32/20/2 5/19/2 11/18/2
f 22/21/5 24/24/5 2/23/5 9/22/5
f 13/25/6 9/28/6 10/27/6 14/26/6
f 38/29/6 36/32/6 11/31/6 15/30/6
f 26/33/6 22/34/6 9/28/6 13/25/6
f 15/30/6 11/31/6 12/36/6 16/35/6
f 4/37/6 13/25/6 14/26/6 3/38/6
f 39/39/6 38/29/6 15/30/6 7/40/6
f 28/41/6 26/33/6 13/25/6 4/37/6
f 7/40/6 15/30/6 16/35/6 8/42/6
f 40/43/6 19/46/6 20/45/6 35/44/6
f 3/47/3 18/50/3 17/49/3 4/48/3
f 8/51/1 20/54/1 19/53/1 7/52/1
f 27/55/5 29/58/5 18/57/5 3/56/5
f 39/59/5 40/60/5 29/58/5 27/55/5
f 18/61/6 29/64/6 30/63/6 17/62/6
f 34/65/6 33/66/6 26/33/6 28/41/6
f 3/38/6 14/26/6 25/68/6 27/67/6
f 33/66/6 31/69/6 22/34/6 26/33/6
f 14/26/6 10/27/6 21/70/6 25/68/6
f 31/69/6 44/72/6 43/71/6 22/34/6
f 10/73/2 1/76/2 23/75/2 21/74/2
f 32/77/4 23/13/4 24/14/4 37/78/4
f 4/79/2 17/82/2 30/81/2 28/80/2
f 5/83/4 32/77/4 37/78/4 6/84/4
f 12/85/5 6/88/5 37/87/5 31/86/5
f 16/35/6 12/36/6 31/69/6 33/66/6
f 8/42/6 16/35/6 33/66/6 34/65/6
f 7/89/5 19/90/5 40/60/5 39/59/5
f 29/64/6 40/43/6 35/44/6 30/63/6
f 27/67/6 25/68/6 38/29/6 39/39/6
f 25/68/6 21/70/6 36/32/6 38/29/6
f 21/74/2 23/75/2 32/20/2 36/17/2
f 28/80/2 30/81/2 35/8/2 34/5/2
f 44/91/5 41/94/5 42/93/5 43/92/5
f 37/95/7 41/98/7 44/97/7 31/96/7
f 22/99/8 43/102/8 42/101/8 24/100/8
f 24/14/4 42/104/4 41/103/4 37/78/4
